# xmcd CD database file
#
# Track frame offsets:
#	150
#	16981
#	28401
#	47947
#	68319
#	85774
#	103077
#	125220
#	136231
#	156319
#	172191
#	190889
#	211820
#	226558
#
# Disc length: 3245 seconds
#
# Revision: 0
# Processed by: cddbd v1.4PL0 Copyright (c) Steve Scherf et al.
# Submitted via: CDex 1.50beta9
#
DISCID=bd0cab0e
DTITLE=SHAUN MICHAEL - AFTER ALL ALL THESE YEARS
DYEAR=1900
DGENRE=Country
TTITLE0=After All These Years
TTITLE1=Love Of The Song
TTITLE2=Anna From Fermanagh
TTITLE3=Sweet Sixteen
TTITLE4=Say You Love Me
TTITLE5=One Nigth At A Tine
TTITLE6=Danny Boy
TTITLE7=Pretty Little Girl From Omagh
TTITLE8=Can We Go Round Again
TTITLE9=You Got It
TTITLE10=Home To Doegal
TTITLE11=Dublin In The Rare Auld Times
TTITLE12=Best Of Friends
TTITLE13=My Son's
EXTD=
EXTT0=
EXTT1=
EXTT2=
EXTT3=
EXTT4=
EXTT5=
EXTT6=
EXTT7=
EXTT8=
EXTT9=
EXTT10=
EXTT11=
EXTT12=
EXTT13=
PLAYORDER=
